<?xml version="1.0" encoding="UTF-8" standalone="no"?>
<svg width="234px" height="82px" viewBox="0 0 234 82" version="1.1" xmlns="http://www.w3.org/2000/svg" xmlns:xlink="http://www.w3.org/1999/xlink" xmlns:sketch="http://www.bohemiancoding.com/sketch/ns">
    <!-- Generator: Sketch 3.0.1 (7597) - http://www.bohemiancoding.com/sketch -->
    <title>Slice 1</title>
    <description>Created with Sketch.</description>
    <defs></defs>
    <g id="Page-1" stroke="none" stroke-width="1" fill="none" fill-rule="evenodd" sketch:type="MSPage">
        <g id="trapit-logo" sketch:type="MSLayerGroup">
            <g id="Group" sketch:type="MSShapeGroup">
                <g transform="translate(181.000000, 0.000000)" id="Shape" fill="#00A69C">
                    <path d="M7.8,42.7 C10.2,42.7 12.4,43.3 14.3,44.4 L14.3,0 L1.2,0 L1.2,44.5 C3.1,43.4 5.3,42.7 7.8,42.7 L7.8,42.7 Z"></path>
                    <path d="M15.5,55.9 C15.5,60.2 12,63.6 7.8,63.6 C3.5,63.6 0,60.2 0,55.9 C0,51.6 3.5,48.1 7.8,48.1 C12,48.1 15.5,51.6 15.5,55.9 L15.5,55.9 Z"></path>
                </g>
                <path d="M8.3,51.1 L8.3,25.1 L0,25.1 L0,13.7 L8.3,13.7 L8.3,0 L21.4,0 L21.4,13.7 L31.5,13.7 L31.5,25.2 L21.4,25.2 L21.4,47.7 C21.4,50.9 23.1,53.3 26,53.3 C28,53.3 29.8,52.6 30.6,51.7 L33.4,61.7 C31.4,63.5 27.9,64.9 22.4,64.9 C13.1,64.9 8.3,60.1 8.3,51.1 L8.3,51.1 Z" id="Shape" fill="#282828"></path>
                <path d="M40.6,63.7 L40.6,13.7 L53.7,13.7 L53.7,20.4 C57.3,16.1 63.4,12.4 69.6,12.4 L69.6,25.2 C68.7,25 67.5,24.9 66,24.9 C61.7,24.9 55.9,27.4 53.7,30.6 L53.7,63.6 L40.6,63.6 L40.6,63.7 Z" id="Shape" fill="#282828"></path>
                <path d="M105.8,63.7 L105.8,58.4 C102.4,62.5 96.5,64.9 90,64.9 C82,64.9 72.7,59.5 72.7,48.3 C72.7,36.5 82,32.2 90,32.2 C96.7,32.2 102.5,34.4 105.8,38.3 L105.8,32 C105.8,26.9 101.5,23.6 94.8,23.6 C89.5,23.6 84.6,25.7 80.4,29.5 L75.2,20.3 C81.3,14.8 89.2,12.4 97,12.4 C108.5,12.4 118.9,17 118.9,31.3 L118.9,63.6 L105.8,63.6 L105.8,63.7 Z M105.8,51.7 L105.8,45.5 C103.6,42.6 99.5,41 95.2,41 C90,41 85.8,43.8 85.8,48.6 C85.8,53.4 90,56.1 95.2,56.1 C99.5,56 103.6,54.6 105.8,51.7 L105.8,51.7 Z" id="Shape" fill="#282828"></path>
                <path d="M138.9,57.2 L138.9,82.7 L125.8,82.7 L125.8,13.7 L138.9,13.7 L138.9,20 C142.7,15.1 148.2,12.4 154.3,12.4 C167.1,12.4 176.5,21.9 176.5,38.6 C176.5,55.3 167.2,64.9 154.3,64.9 C148.4,64.9 143.1,62.4 138.9,57.2 L138.9,57.2 Z M162.9,38.6 C162.9,30 157.7,24.1 150.2,24.1 C146,24.1 141.2,26.5 138.9,29.8 L138.9,47.4 C141.1,50.6 145.9,53.2 150.2,53.2 C157.8,53.2 162.9,47.3 162.9,38.6 L162.9,38.6 Z" id="Shape" fill="#282828"></path>
                <path d="M208.8,51.1 L208.8,25.1 L200.5,25.1 L200.5,13.7 L208.8,13.7 L208.8,0 L221.9,0 L221.9,13.7 L232,13.7 L232,25.2 L221.9,25.2 L221.9,47.7 C221.9,50.9 223.6,53.3 226.5,53.3 C228.5,53.3 230.3,52.6 231.1,51.7 L233.9,61.7 C231.9,63.5 228.4,64.9 222.9,64.9 C213.6,64.9 208.8,60.1 208.8,51.1 L208.8,51.1 Z" id="Shape" fill="#00A69C"></path>
            </g>
        </g>
    </g>
</svg>